<?xml version="1.0" standalone="no"?>
<!DOCTYPE svg PUBLIC "-//W3C//DTD SVG 20010904//EN"
 "http://www.w3.org/TR/2001/REC-SVG-20010904/DTD/svg10.dtd">
<svg version="1.0" xmlns="http://www.w3.org/2000/svg"
 width="400.000000pt" height="400.000000pt" viewBox="0 0 400.000000 400.000000"
 preserveAspectRatio="xMidYMid meet">

<g transform="translate(0.000000,400.000000) scale(0.100000,-0.100000)"
fill="#000000" stroke="none">
<path d="M1 3851 c1 -146 1 -149 25 -161 27 -15 30 -25 12 -44 -11 -11 -15
-11 -25 3 -10 13 -12 -254 -12 -1289 0 -1267 1 -1304 18 -1264 27 59 66 87
200 139 66 25 131 55 145 66 13 10 27 19 31 19 3 0 31 12 61 27 30 14 57 23
61 20 11 -11 -15 -79 -50 -131 -17 -27 -37 -58 -43 -68 -15 -25 -201 -214
-300 -305 -91 -83 -124 -129 -124 -171 0 -30 2 -32 35 -32 19 0 35 -3 35 -7 0
-5 -16 -21 -35 -36 l-35 -28 0 -294 0 -295 1050 0 1050 0 0 29 c0 32 24 96 40
106 5 3 10 2 10 -3 0 -5 25 -29 55 -53 35 -28 51 -47 45 -53 -6 -6 -10 -14
-10 -18 0 -4 396 -8 880 -8 861 0 880 0 880 19 0 13 -9 21 -30 26 -16 4 -32
11 -35 16 -4 5 -216 9 -518 9 l-512 0 -48 45 -48 44 2 63 3 63 -125 5 c-104 4
-134 9 -189 32 -36 14 -73 29 -82 32 -15 4 -18 17 -18 65 0 59 0 59 33 64 51
8 301 7 333 -2 24 -6 30 -14 34 -47 l5 -39 8 49 c4 26 4 52 1 57 -3 6 -90 8
-204 7 -109 -2 -201 0 -205 4 -4 4 -9 45 -12 91 -6 94 0 103 57 87 17 -5 37
-7 45 -4 7 3 16 0 20 -6 6 -9 9 -9 15 1 7 10 12 10 22 1 8 -6 60 -12 122 -14
59 -1 110 -6 113 -11 3 -5 9 -32 13 -61 7 -46 8 -42 9 42 1 89 0 92 -21 93
-13 0 -110 0 -215 0 -205 0 -209 1 -205 50 2 19 -11 41 -44 78 -40 44 -43 51
-25 51 13 0 28 -12 39 -29 14 -24 19 -26 30 -15 7 8 10 14 6 14 -3 0 -1 7 6
15 23 28 118 16 169 -22 3 -2 -5 -13 -16 -26 -25 -27 -37 -63 -24 -71 5 -4 12
-2 16 4 4 6 11 8 16 5 5 -4 12 7 15 24 7 31 18 39 29 21 11 -18 23 -11 18 10
-3 11 0 20 6 20 6 0 11 -5 11 -10 0 -17 64 -69 86 -70 11 0 25 5 32 12 9 9 15
9 24 0 7 -7 20 -12 29 -12 15 0 18 12 21 78 2 42 1 81 -3 85 -3 5 -133 8 -287
8 -177 -1 -283 3 -287 9 -4 6 3 22 14 36 12 15 21 21 21 13 0 -11 17 -14 70
-14 l69 0 -2 45 -2 45 50 -1 c153 -3 147 -2 140 -25 -6 -19 -4 -21 17 -16 17
5 36 -1 61 -18 22 -16 56 -27 87 -30 l51 -5 -3 93 -3 92 -30 3 c-16 1 -47 2
-67 2 -21 0 -38 5 -38 10 0 6 3 10 8 11 79 5 129 12 135 18 4 4 7 46 5 92 -3
79 -4 84 -26 87 -22 3 -26 27 -4 27 21 0 26 17 28 83 1 37 4 78 7 92 8 36 94
362 100 380 3 8 8 27 11 42 5 20 11 26 24 21 16 -5 16 -5 0 8 -16 13 -16 19 1
109 10 52 19 142 20 199 1 78 7 115 21 146 29 63 50 127 50 153 0 12 -9 39
-19 60 -19 37 -19 38 2 85 20 46 22 47 63 47 29 0 58 9 86 26 60 36 159 172
158 217 -1 7 -7 1 -14 -12 l-14 -25 -16 35 -17 34 20 -25 21 -25 0 35 c0 20
-6 45 -14 56 -8 11 -16 49 -19 84 -8 102 -17 133 -33 119 -11 -9 -14 -8 -14 5
0 16 -1 16 -16 2 -14 -14 -34 -14 -34 0 0 3 5 2 10 -1 6 -3 10 1 10 10 0 12
-5 15 -17 11 -14 -6 -14 -4 2 16 11 13 21 25 23 28 2 2 7 -2 12 -10 8 -13 10
-12 10 3 0 41 -80 -1 -94 -50 -4 -13 -12 -22 -18 -20 -6 1 -16 -13 -21 -31
-16 -53 -32 -32 -31 41 l0 65 -18 -24 c-11 -13 -16 -28 -13 -34 3 -5 4 -10 2
-10 -3 0 -21 32 -41 71 l-36 70 32 29 c31 28 83 48 95 36 4 -3 -1 -6 -9 -6 -9
0 -21 -7 -28 -15 -16 -19 -10 -19 26 0 41 21 112 19 152 -5 48 -30 86 -98 107
-191 17 -78 17 -118 -1 -220 -4 -28 -3 -31 6 -16 18 28 24 164 11 227 -25 122
-90 214 -159 225 -60 11 -70 15 -75 33 -4 16 -5 16 -6 0 -1 -13 -10 -18 -34
-18 -21 0 -51 -11 -78 -30 -45 -30 -65 -38 -54 -20 12 20 14 51 3 44 -8 -5 -9
-1 -5 10 4 10 3 15 -3 11 -6 -4 -8 -17 -6 -30 4 -21 2 -23 -17 -16 -12 5 -24
17 -25 27 -4 18 -3 18 13 -1 16 -20 16 -20 12 2 -4 16 1 24 14 28 10 4 19 11
19 17 0 6 -7 7 -17 3 -39 -16 -56 -18 -49 -7 13 21 -10 13 -38 -13 -35 -32
-34 -13 2 24 33 35 83 61 115 61 35 0 85 -28 92 -51 7 -20 8 -19 26 10 10 17
19 39 20 49 1 11 4 8 9 -8 8 -24 8 -24 8 5 0 17 -3 39 -8 50 -7 17 -9 13 -15
-21 -11 -63 -16 -67 -60 -44 -22 11 -48 20 -60 20 -15 0 -31 21 -65 86 -42 82
-143 204 -168 204 -6 0 14 -24 45 -52 62 -59 103 -117 103 -147 0 -11 4 -23
10 -26 5 -3 10 -13 10 -21 0 -12 -4 -12 -25 2 -14 9 -24 24 -23 32 2 9 -8 21
-21 28 -13 7 -26 17 -30 22 -8 14 -101 62 -118 62 -37 0 -162 78 -148 92 2 2
-14 4 -35 6 -22 1 -42 -3 -46 -9 -4 -8 -3 -9 4 -5 7 4 12 2 12 -4 0 -7 6 -10
14 -7 8 3 19 0 25 -7 11 -14 5 -26 -13 -26 -6 0 -4 5 4 10 8 5 10 10 4 10 -19
0 -23 -12 -11 -31 15 -23 29 -25 20 -2 -5 13 -2 15 11 10 12 -5 15 -3 10 6 -5
7 -1 7 10 -2 12 -10 14 -16 5 -22 -13 -8 -9 -20 18 -59 17 -25 17 -25 -2 -10
-11 8 -23 20 -27 25 -5 6 -8 6 -8 -1 0 -6 7 -17 15 -24 8 -7 15 -21 15 -30 0
-10 6 -20 12 -22 8 -3 13 -24 13 -56 l0 -52 42 0 c23 0 44 -4 48 -9 12 -20
-16 -21 -70 -3 -38 13 -66 17 -88 12 -31 -7 -30 -8 19 -15 30 -4 63 -17 80
-31 l29 -23 -50 -1 c-30 0 -58 -7 -70 -17 l-20 -16 20 8 c36 14 122 18 129 6
4 -6 -4 -13 -19 -17 -14 -3 -25 -10 -25 -15 0 -4 14 -3 31 3 17 6 70 9 119 6
82 -4 91 -7 134 -39 32 -24 56 -53 79 -99 32 -64 32 -67 32 -205 0 -116 -3
-147 -19 -180 -10 -22 -28 -60 -39 -85 -26 -55 -113 -144 -163 -165 -20 -8
-64 -15 -99 -15 -108 0 -174 62 -227 215 -51 145 -33 292 50 393 19 23 32 45
29 48 -3 3 -24 -22 -48 -55 -43 -61 -70 -67 -42 -9 8 16 13 38 10 49 -3 10 -2
17 1 15 4 -2 17 12 29 30 27 41 8 47 -27 9 -13 -14 -26 -25 -29 -25 -3 0 -15
15 -27 33 -12 17 -42 65 -68 105 -26 39 -51 72 -56 72 -4 0 -6 -17 -3 -39 3
-21 1 -41 -4 -44 -8 -5 -85 42 -154 96 -20 15 -39 27 -43 27 -9 0 1 -10 80
-77 62 -53 158 -185 188 -257 20 -48 20 -55 0 -30 -15 19 -16 19 -9 -1 23 -66
28 -100 28 -185 0 -99 -19 -194 -53 -259 -64 -124 -216 -186 -389 -161 -148
22 -224 78 -301 222 -37 70 -43 89 -48 163 -3 50 0 96 7 116 19 54 5 44 -24
-18 -15 -32 -30 -83 -34 -113 l-8 -55 -12 30 c-20 45 -25 156 -11 216 26 111
154 258 239 275 67 14 37 32 -84 54 -76 13 -242 16 -275 6 -42 -14 -134 -58
-151 -73 -9 -7 -36 -20 -60 -27 -27 -9 -36 -14 -22 -15 12 -1 34 4 50 10 47
20 265 28 329 13 84 -19 90 -29 49 -72 -62 -66 -115 -211 -115 -313 0 -21 -4
-39 -9 -39 -5 0 -32 11 -59 25 -28 14 -54 25 -59 25 -6 0 -26 16 -46 35 -21
20 -37 32 -37 28 0 -13 112 -119 140 -133 19 -9 17 -5 -10 19 l-35 31 55 -24
c50 -21 57 -28 75 -75 11 -28 28 -60 38 -72 27 -31 17 -31 -28 1 -22 16 -63
40 -90 53 -67 32 -145 92 -169 130 -11 16 -22 25 -24 18 -2 -6 0 -17 6 -24 5
-7 21 -54 36 -105 15 -51 35 -107 46 -125 37 -59 25 -61 -54 -10 -31 21 -56
42 -56 48 0 23 -99 145 -204 252 -60 62 -112 110 -115 107 -3 -2 20 -30 50
-62 97 -100 129 -145 146 -201 11 -39 35 -79 80 -135 35 -43 62 -81 59 -83 -8
-9 -121 51 -178 94 -31 24 -82 71 -112 105 -31 34 -58 59 -61 56 -17 -17 99
-213 165 -277 80 -81 233 -153 391 -185 17 -4 37 -22 57 -53 17 -27 41 -61 53
-76 l22 -29 -44 3 c-27 2 -43 -1 -42 -8 3 -17 -71 23 -145 77 -37 27 -68 47
-70 45 -6 -6 22 -47 58 -88 82 -91 59 -89 -40 3 -41 39 -82 76 -91 83 -9 6
-30 26 -48 42 l-33 30 16 -39 c19 -46 16 -54 -9 -26 -10 11 -31 20 -46 20 -25
0 -78 36 -114 76 -5 7 -32 24 -60 39 -44 24 -106 75 -90 75 9 0 49 -22 55 -30
8 -12 109 -42 157 -47 l45 -5 -86 88 c-48 48 -103 112 -123 143 -20 31 -44 68
-54 83 -11 15 -19 29 -19 32 0 3 -15 38 -34 78 -35 76 -74 188 -53 153 23 -37
116 -130 123 -122 4 4 -2 17 -13 30 -11 12 -23 29 -26 37 -3 8 -22 53 -41 100
-20 46 -36 88 -36 92 0 16 21 7 102 -46 46 -29 94 -57 108 -61 14 -4 42 -16
63 -27 51 -26 58 -16 10 13 -56 34 -159 136 -200 198 -67 101 -81 133 -149
349 -16 52 -14 52 86 -8 61 -36 120 -59 120 -46 0 3 -17 10 -37 15 -21 6 -72
33 -113 61 -41 27 -80 50 -87 50 -20 0 -26 -100 -13 -244 9 -107 10 -163 1
-231 l-11 -89 46 -98 c33 -71 44 -104 38 -120 -4 -13 -7 -75 -6 -138 l2 -115
-73 -18 c-39 -10 -76 -22 -81 -27 -6 -6 9 -29 36 -58 68 -73 85 -115 112 -274
44 -261 47 -344 16 -404 -9 -16 -7 -32 9 -74 11 -30 20 -55 18 -56 -12 -9
-122 -63 -124 -60 -2 2 -8 57 -13 122 -5 66 -14 160 -20 209 -5 50 -14 149
-20 220 -17 210 -39 449 -55 605 -19 177 -55 644 -62 798 l-6 112 -189 0 -189
0 2 -149z m266 47 c-3 -8 -6 -5 -6 6 -1 11 2 17 5 13 3 -3 4 -12 1 -19z m2328
2 c3 -5 -1 -10 -9 -10 -9 0 -16 5 -16 10 0 6 4 10 9 10 6 0 13 -4 16 -10z m68
-18 c-13 -2 -23 -8 -23 -14 0 -6 -2 -9 -5 -6 -14 13 7 35 28 30 l22 -7 -22 -3z
m51 -8 c9 -3 16 -14 15 -23 0 -10 -2 -11 -6 -3 -2 6 -11 12 -19 12 -8 0 -14 5
-14 10 0 12 3 12 24 4z m-44 -15 c0 -6 9 -22 20 -36 11 -14 20 -20 20 -13 0 7
3 11 6 7 3 -3 1 -13 -4 -23 -9 -16 -10 -16 -16 3 -4 11 -15 28 -26 38 -22 20
-26 35 -10 35 6 0 10 -5 10 -11z m111 -29 c64 -54 73 -65 55 -68 -9 -2 -14 -7
-11 -12 3 -5 1 -11 -5 -15 -13 -8 -13 18 1 32 8 8 -2 20 -35 42 -25 18 -46 34
-46 36 0 11 18 4 41 -15z m-2181 -34 c0 -26 -6 -18 -14 19 -5 22 -4 26 4 15 5
-8 10 -24 10 -34z m-323 -28 c-3 -8 -6 -5 -6 6 -1 11 2 17 5 13 3 -3 4 -12 1
-19z m330 -20 c-3 -8 -6 -5 -6 6 -1 11 2 17 5 13 3 -3 4 -12 1 -19z m2272 -33
c5 3 12 1 15 -4 4 -5 2 -12 -3 -16 -14 -8 -53 33 -45 47 5 7 10 3 16 -11 4
-12 12 -20 17 -16z m65 10 c3 -8 1 -15 -4 -15 -6 0 -10 7 -10 15 0 8 2 15 4
15 2 0 6 -7 10 -15z m-2347 -17 c-3 -8 -6 -5 -6 6 -1 11 2 17 5 13 3 -3 4 -12
1 -19z m-304 -33 c-3 -9 -8 -14 -10 -11 -3 3 -2 9 2 15 9 16 15 13 8 -4z
m2569 0 c0 -5 -5 -11 -11 -13 -6 -2 -11 4 -11 13 0 9 5 15 11 13 6 -2 11 -8
11 -13z m-2575 -62 c4 -2 7 -42 6 -90 -2 -97 2 -99 17 -8 l9 60 -5 -68 c-3
-39 -1 -66 4 -63 5 3 9 -33 9 -83 0 -48 3 -92 6 -98 7 -11 23 -169 32 -313 3
-52 10 -147 16 -210 25 -294 31 -363 39 -480 5 -69 14 -174 20 -235 6 -60 15
-193 19 -295 4 -102 11 -193 15 -202 6 -12 3 -20 -8 -24 -9 -4 -19 -4 -22 -1
-6 5 -17 180 -18 264 0 23 -3 40 -6 38 -4 -2 -7 26 -8 63 -1 37 -8 121 -16
187 -15 119 -34 367 -40 520 -2 44 -6 87 -10 96 -4 10 -8 62 -9 117 -1 55 -5
98 -9 95 -5 -2 -9 13 -9 34 -1 21 -3 47 -5 58 -1 11 -7 97 -13 190 -6 94 -14
211 -17 260 -7 122 -12 173 -18 220 -5 39 -5 39 4 5 4 -19 12 -36 17 -37z
m2486 47 c29 -23 41 -26 34 -7 -3 8 0 14 7 14 6 0 12 -8 12 -18 0 -10 -4 -15
-8 -13 -4 3 -8 -6 -8 -20 0 -32 -11 -33 -48 -1 -17 14 -35 25 -41 25 -6 0 -11
9 -11 20 0 13 7 20 19 20 10 0 30 -9 44 -20z m-2596 -52 c13 -16 25 -148 14
-148 -5 0 -12 28 -17 62 -7 47 -13 62 -26 64 -10 1 -18 -2 -18 -7 0 -5 -9 -1
-20 8 -11 10 -20 21 -20 25 0 13 77 9 87 -4z m2698 -8 c-3 -5 -10 -10 -16 -10
-5 0 -9 5 -9 10 0 6 7 10 16 10 8 0 12 -4 9 -10z m-2271 -256 c3 -8 2 -12 -4
-9 -6 3 -10 10 -10 16 0 14 7 11 14 -7z m2706 -303 c0 -16 -28 -33 -35 -21 -4
6 -1 9 7 8 7 -2 12 3 11 10 -2 6 2 12 7 12 6 0 10 -4 10 -9z m-100 -16 c-7 -9
-15 -13 -19 -10 -3 3 1 10 9 15 21 14 24 12 10 -5z m31 -68 l-24 -22 19 27
c10 14 21 24 23 22 3 -3 -6 -15 -18 -27z m-2270 -4 c13 -16 12 -17 -3 -4 -10
7 -18 15 -18 17 0 8 8 3 21 -13z m-315 -118 c14 -25 32 -45 40 -45 8 0 14 -4
14 -9 0 -14 67 -91 106 -122 l36 -28 -26 -12 c-30 -14 -34 -29 -8 -29 10 0 22
-3 25 -6 4 -4 29 -14 56 -24 52 -17 121 -59 121 -73 0 -20 -56 -79 -88 -93
-49 -20 -72 -18 -119 13 -37 23 -43 34 -63 102 -24 87 -89 231 -103 231 -5 0
2 -19 16 -42 25 -45 68 -155 86 -225 7 -24 24 -54 39 -68 23 -22 24 -25 6 -18
-30 11 -101 77 -124 115 -10 18 -27 68 -36 111 -12 55 -29 97 -55 138 -21 32
-36 59 -32 59 3 0 21 -12 40 -26 19 -14 37 -24 39 -21 3 3 -22 22 -55 43 -33
22 -61 42 -61 45 0 9 60 27 92 28 22 1 32 -7 54 -44z m2334 -86 c0 -5 -5 -9
-11 -9 -11 0 -39 -25 -39 -35 0 -17 -73 -76 -129 -104 -80 -41 -91 -34 -14 9
32 18 85 61 118 95 55 57 75 69 75 44z m-2523 -151 c-3 -7 -5 -2 -5 12 0 14 2
19 5 13 2 -7 2 -19 0 -25z m1172 -63 c29 -14 57 -25 62 -25 18 0 8 -19 -23
-44 -28 -22 -31 -27 -21 -49 6 -13 33 -37 60 -52 42 -23 55 -26 105 -21 l56 5
4 -44 c2 -25 2 -45 0 -45 -2 0 -15 13 -30 29 -24 25 -30 27 -62 19 l-35 -10
23 -19 c27 -21 23 -54 -8 -62 -29 -8 -92 -149 -92 -207 0 -92 79 -360 118
-400 18 -18 18 -1 1 25 -13 19 -47 113 -81 224 -31 103 -17 214 38 286 21 28
42 52 47 53 5 2 9 10 9 19 0 9 8 13 23 11 16 -2 22 -9 21 -25 -1 -26 0 -27 27
-13 15 8 19 7 19 -5 0 -17 25 -21 35 -5 4 6 10 8 15 5 5 -3 23 -8 39 -10 17
-2 39 -6 50 -10 11 -3 21 0 24 9 3 8 25 18 50 21 38 6 53 2 118 -32 102 -54
123 -66 131 -78 14 -18 8 24 -8 65 l-16 40 32 27 c61 51 140 188 140 242 l0
35 28 -27 c34 -33 85 -45 109 -26 15 13 16 11 9 -22 -4 -24 -1 -53 9 -84 9
-26 14 -53 11 -61 -3 -8 8 -49 25 -92 17 -45 27 -63 24 -43 -7 48 0 36 31 -45
14 -38 36 -97 49 -132 l23 -62 -21 -5 c-12 -3 -47 -9 -77 -14 -46 -8 -195 -56
-209 -68 -3 -2 16 -23 41 -46 l46 -42 -81 -54 c-45 -29 -111 -71 -146 -94 -52
-34 -60 -42 -45 -48 37 -15 105 -9 147 13 48 24 130 48 169 48 20 0 28 -7 35
-27 5 -16 9 -32 8 -38 -1 -24 -35 -56 -71 -68 -59 -21 -173 -30 -212 -16 -18
6 -35 9 -38 6 -3 -3 -2 -22 2 -43 5 -28 21 -52 61 -90 46 -43 62 -53 104 -58
57 -8 63 -25 22 -54 -81 -55 -146 -65 -216 -33 -23 10 -84 35 -136 55 -52 20
-100 40 -105 45 -6 5 -51 29 -100 55 -107 57 -273 168 -390 261 -101 80 -93
60 -160 375 -20 90 -30 119 -48 133 -13 10 -32 25 -42 34 -11 9 -34 24 -51 35
-25 14 -34 28 -39 56 -4 24 -34 77 -91 156 -47 65 -85 123 -85 128 0 16 67 2
87 -17 16 -16 54 -85 47 -85 -2 0 -15 17 -29 37 -25 38 -34 39 -15 2 18 -33 3
-21 -20 16 -12 19 -26 35 -31 35 -5 0 1 -15 13 -34 121 -182 133 -196 139
-179 8 23 -1 50 -11 33 -5 -8 -10 -8 -14 -2 -11 18 23 22 40 4 21 -20 59 -41
88 -46 11 -2 29 -7 39 -11 21 -9 23 13 2 41 -20 27 -19 31 13 37 53 12 58 22
29 56 l-26 31 22 23 c17 17 31 21 65 18 50 -4 53 5 11 42 -22 19 -32 39 -36
68 l-6 41 39 -25 c21 -15 63 -38 93 -52z m296 34 c5 -6 2 -9 -9 -9 -10 0 -30
-6 -44 -14 -52 -27 -112 -49 -118 -43 -4 3 22 24 57 46 62 39 88 44 114 20z
m130 -30 c38 -5 83 -6 100 -3 18 3 50 -2 75 -11 25 -9 59 -20 75 -25 26 -7 24
-8 -20 -8 -92 -1 -267 14 -273 24 -4 5 -23 17 -42 27 -25 13 -28 16 -10 12 14
-3 56 -10 95 -16z m865 -12 c0 -7 -5 -18 -12 -25 -7 -7 -9 -12 -5 -12 11 0
-21 -61 -46 -87 -29 -32 -38 -28 -23 10 8 17 12 46 10 62 -3 25 2 34 24 48 33
20 52 22 52 4z m-2453 -29 c-3 -8 -6 -5 -6 6 -1 11 2 17 5 13 3 -3 4 -12 1
-19z m1476 -6 c93 -25 108 -42 37 -42 -30 0 -77 -3 -105 -6 -61 -6 -86 6 -65
31 12 15 44 33 60 34 3 0 35 -8 73 -17z m-863 -1 c0 -6 22 -39 49 -74 26 -35
52 -71 56 -78 9 -16 -36 20 -47 37 -4 6 -25 33 -48 60 -44 53 -48 64 -25 64 8
0 15 -4 15 -9z m1750 0 c0 -5 -6 -14 -14 -20 -16 -13 -32 2 -21 19 8 12 35 13
35 1z m-1765 -43 c18 -20 24 -33 16 -36 -9 -3 -9 -8 -1 -17 8 -10 6 -22 -10
-47 -21 -35 -27 -78 -10 -78 6 0 10 -12 10 -26 0 -35 44 -122 89 -174 33 -38
43 -44 95 -51 67 -9 99 -32 127 -94 39 -84 15 -141 -47 -109 -177 92 -224 127
-297 223 -23 31 -45 58 -49 61 -13 10 -38 124 -38 175 0 27 6 68 13 90 12 40
57 115 68 115 3 0 18 -14 34 -32z m1380 14 c-3 -3 -11 0 -18 7 -9 10 -8 11 6
5 10 -3 15 -9 12 -12z m355 -27 c0 -8 -4 -15 -10 -15 -5 0 -10 7 -10 15 0 8 5
15 10 15 6 0 10 -7 10 -15z m-2323 -27 c-3 -8 -6 -5 -6 6 -1 11 2 17 5 13 3
-3 4 -12 1 -19z m2253 -14 c0 -8 -5 -12 -10 -9 -6 4 -8 11 -5 16 9 14 15 11
15 -7z m-1480 -39 c5 3 12 0 16 -6 4 -8 3 -9 -4 -5 -7 4 -12 1 -12 -6 0 -14
-49 41 -50 56 0 5 9 -3 21 -18 11 -14 24 -24 29 -21z m1497 23 c-3 -8 -6 -5
-6 6 -1 11 2 17 5 13 3 -3 4 -12 1 -19z m33 18 c0 -3 -4 -8 -10 -11 -5 -3 -10
-1 -10 4 0 6 5 11 10 11 6 0 10 -2 10 -4z m-2303 -28 c-3 -8 -6 -5 -6 6 -1 11
2 17 5 13 3 -3 4 -12 1 -19z m783 16 c0 -8 -19 -13 -24 -6 -3 5 1 9 9 9 8 0
15 -2 15 -3z m938 -29 c21 -15 21 -17 6 -40 -9 -14 -21 -25 -28 -25 -6 0 -22
-9 -36 -20 -14 -11 -27 -20 -30 -20 -3 0 -6 24 -5 53 0 54 8 65 50 66 11 1 31
-6 43 -14z m-120 -23 c3 -9 -3 -13 -19 -10 -12 1 -24 9 -27 16 -3 9 3 13 19
10 12 -1 24 -9 27 -16z m-1591 -69 c-2 -16 -4 -3 -4 27 0 30 2 43 4 28 2 -16
2 -40 0 -55z m1573 12 c0 -18 -4 -23 -15 -18 -10 3 -15 1 -13 -7 2 -7 -3 -15
-9 -17 -19 -7 -16 24 4 47 23 27 33 25 33 -5z m-118 -7 c-7 -7 -12 -8 -12 -2
0 6 3 14 7 17 3 4 9 5 12 2 2 -3 -1 -11 -7 -17z m-1239 -13 c3 -8 7 -60 8
-115 1 -82 -2 -105 -14 -118 -15 -14 -18 -13 -33 23 -14 35 -14 45 0 116 9 43
13 85 10 94 -4 9 -1 15 9 15 8 0 17 -7 20 -15z m1263 -12 c-10 -10 -19 5 -10
18 6 11 8 11 12 0 2 -7 1 -15 -2 -18z m30 -10 c-11 -11 -19 6 -11 24 8 17 8
17 12 0 3 -10 2 -21 -1 -24z m842 -170 c-4 -94 -12 -119 -28 -93 -11 17 -14
193 -3 203 3 4 13 1 21 -5 11 -10 13 -32 10 -105z m-1954 98 c9 -14 -20 -130
-37 -149 -38 -45 -63 -149 -43 -180 3 -5 0 -53 -5 -107 -14 -125 -62 -228
-151 -326 -20 -21 -63 -26 -74 -8 -3 6 -17 8 -30 5 -29 -8 -30 0 -4 39 33 50
85 164 122 270 60 172 76 225 68 225 -5 0 -16 -26 -25 -57 -28 -96 -53 -140
-119 -211 -34 -37 -71 -77 -82 -89 -10 -13 -22 -23 -26 -23 -10 0 -11 234 -2
279 9 45 52 84 135 122 76 35 153 108 190 180 16 32 25 39 49 39 16 0 31 -4
34 -9z m199 -303 c-14 -19 -31 -85 -38 -145 -3 -28 -12 -64 -20 -80 -8 -15
-15 -34 -15 -41 0 -7 -7 -15 -15 -18 -8 -4 -15 -12 -15 -20 0 -8 -4 -14 -10
-14 -14 0 -12 46 4 106 20 77 102 241 114 230 3 -3 1 -11 -5 -18z m-612 -385
c0 -10 2 -26 4 -36 2 -10 -6 -22 -18 -28 -11 -7 -41 -31 -66 -54 -48 -45 -141
-100 -141 -84 0 47 87 152 160 193 54 31 60 31 61 9z m-121 -27 c0 -2 -15 -20
-34 -40 -40 -40 -86 -115 -86 -139 0 -10 -14 -20 -37 -26 -62 -18 -66 -15 -44
27 28 54 78 106 141 146 56 37 60 39 60 32z m950 -372 c0 -2 25 -44 55 -93 58
-94 64 -115 40 -147 -8 -10 -15 -32 -15 -49 -1 -57 -10 -75 -34 -65 -79 30
-114 53 -129 86 -31 63 -13 181 23 159 9 -6 10 1 4 26 -10 39 -10 118 0 144 5
14 10 11 31 -19 14 -20 25 -39 25 -42z m1426 -190 c-6 -13 -17 -24 -25 -24
-11 0 -11 -3 -1 -15 19 -23 3 -31 -20 -10 -19 17 -19 19 -2 31 15 12 13 14
-20 12 -21 -1 -40 1 -44 4 -14 15 8 23 64 25 59 1 59 1 48 -23z m-1266 -69 c5
-14 13 -25 18 -25 5 0 30 -26 55 -57 25 -32 53 -67 64 -78 67 -74 113 -128
113 -136 0 -5 -39 12 -87 38 -49 26 -108 57 -133 69 -72 37 -91 56 -97 100 -6
47 18 114 42 114 8 0 20 -11 25 -25z m1328 -588 c7 -56 -3 -58 -67 -20 -34 20
-61 40 -61 45 0 5 28 8 63 6 60 -3 62 -4 65 -31z"/>
<path d="M306 3365 c-3 -9 -6 -24 -5 -33 0 -9 5 -4 10 12 9 32 6 48 -5 21z"/>
<path d="M332 3140 c0 -14 2 -19 5 -12 2 6 2 18 0 25 -3 6 -5 1 -5 -13z"/>
<path d="M357 2731 c-4 -17 -3 -21 5 -13 5 5 8 16 6 23 -3 8 -7 3 -11 -10z"/>
<path d="M2645 2233 c4 -10 13 -40 21 -68 21 -72 24 -78 29 -73 2 2 0 20 -5
39 -5 19 -14 53 -20 77 -6 23 -16 42 -21 42 -7 0 -8 -7 -4 -17z"/>
<path d="M2616 2150 c4 -30 11 -62 16 -70 5 -9 6 5 2 40 -3 30 -10 62 -15 70
-6 9 -7 -6 -3 -40z"/>
<path d="M2641 2165 c0 -22 6 -51 14 -65 l14 -25 0 25 c0 14 -6 43 -14 65
l-13 40 -1 -40z"/>
<path d="M2580 2169 c0 -5 -4 -7 -10 -4 -13 8 -11 -28 5 -90 12 -49 13 -49 15
-15 2 25 4 29 7 13 2 -13 9 -23 14 -23 6 0 8 8 5 18 -3 9 -8 38 -12 65 -3 26
-10 47 -15 47 -5 0 -9 -5 -9 -11z m7 -51 c-3 -7 -5 -2 -5 12 0 14 2 19 5 13 2
-7 2 -19 0 -25z"/>
<path d="M2543 2085 c0 -44 2 -61 4 -37 2 23 2 59 0 80 -2 20 -4 1 -4 -43z"/>
<path d="M1298 1939 c-25 -14 -22 -54 5 -71 30 -19 56 -12 64 19 4 20 1 31
-17 45 -25 21 -29 21 -52 7z m49 -28 c17 -27 -9 -50 -34 -30 -10 7 -19 14 -21
15 -1 1 0 9 4 18 8 22 36 20 51 -3z"/>
<path d="M340 1345 c-24 -25 -40 -45 -35 -45 13 1 90 78 84 85 -3 2 -25 -16
-49 -40z"/>
<path d="M1290 921 c5 -11 24 -28 40 -38 17 -9 30 -21 30 -25 0 -4 7 -8 15 -8
8 0 15 5 15 10 0 6 -4 10 -10 10 -5 0 -27 16 -49 35 -43 39 -57 44 -41 16z"/>
<path d="M1002 3959 c-6 -25 -21 -58 -32 -72 -12 -15 -18 -32 -14 -39 4 -7 3
-10 -1 -5 -5 4 -16 0 -25 -8 -10 -9 -37 -20 -61 -25 -38 -8 -35 -9 28 -5 39 3
84 10 100 16 15 6 80 14 143 18 l115 7 -39 17 c-21 9 -62 17 -91 17 -30 0 -55
5 -57 10 -2 6 -13 12 -25 13 -12 0 -19 5 -17 9 3 5 10 6 15 3 5 -4 9 -2 9 4 0
5 -5 11 -11 13 -6 2 -14 19 -18 38 l-7 35 -12 -46z m-8 -88 c3 -5 -1 -11 -9
-14 -9 -4 -12 -1 -8 9 6 16 10 17 17 5z"/>
<path d="M1140 3995 c0 -4 94 -31 138 -39 37 -6 39 -3 13 23 -14 14 -34 19
-85 19 -36 0 -66 -1 -66 -3z"/>
<path d="M1290 3988 c0 -9 10 -11 70 -9 24 0 49 6 54 11 7 7 -10 10 -57 8 -37
-2 -67 -6 -67 -10z"/>
<path d="M1525 3980 c103 -21 256 -79 398 -152 53 -28 100 -49 102 -46 5 5
-57 102 -82 126 -7 7 -18 21 -25 30 -26 36 -72 59 -113 58 -27 -1 -39 -6 -37
-14 1 -8 -2 -11 -8 -7 -6 3 -8 11 -5 16 4 5 -59 9 -157 8 l-163 -1 90 -18z
m82 4 c-3 -3 -12 -4 -19 -1 -8 3 -5 6 6 6 11 1 17 -2 13 -5z m213 -20 c0 -2
-9 0 -20 6 -11 6 -20 13 -20 16 0 2 9 0 20 -6 11 -6 20 -13 20 -16z m-115 -22
c-3 -3 -11 0 -18 7 -9 10 -8 11 6 5 10 -3 15 -9 12 -12z m60 9 c3 -5 2 -12 -3
-15 -5 -3 -9 1 -9 9 0 17 3 19 12 6z"/>
<path d="M2585 3990 c3 -5 8 -10 11 -10 2 0 4 5 4 10 0 6 -5 10 -11 10 -5 0
-7 -4 -4 -10z"/>
<path d="M1310 3884 c125 -27 235 -57 253 -69 27 -19 46 -20 27 -1 -22 21
-175 65 -245 70 -33 3 -49 3 -35 0z"/>
<path d="M1632 3775 c2 -1 40 -19 86 -39 45 -20 132 -70 192 -111 118 -81 194
-125 217 -125 12 0 12 3 -1 16 -9 8 -21 24 -27 35 -5 11 -14 17 -20 14 -5 -4
-8 -2 -7 3 5 16 -109 128 -156 155 -53 30 -116 44 -214 50 -40 2 -71 3 -70 2z"/>
<path d="M690 3677 c0 -15 48 -83 88 -122 43 -42 125 -89 177 -100 17 -4 -6
11 -50 32 -77 39 -118 74 -187 163 -15 19 -27 32 -28 27z"/>
<path d="M2924 3655 c-18 -13 -18 -14 4 -8 12 3 25 9 28 14 8 14 -10 11 -32
-6z"/>
<path d="M2972 3640 c0 -14 2 -19 5 -12 2 6 2 18 0 25 -3 6 -5 1 -5 -13z"/>
<path d="M1885 3467 c-54 -18 -108 -47 -101 -54 3 -3 16 1 29 9 12 9 48 24 78
33 79 25 258 9 322 -28 52 -31 98 -80 126 -132 21 -40 28 -36 12 8 -14 37
-111 128 -158 148 -56 24 -252 34 -308 16z"/>
<path d="M2745 3386 c-77 -36 -106 -91 -113 -209 -4 -82 -2 -93 23 -143 34
-67 72 -100 124 -109 65 -11 88 11 128 122 12 33 18 78 18 144 0 81 -4 102
-24 142 -15 29 -35 51 -56 61 -42 20 -41 20 -100 -8z"/>
<path d="M1930 3269 c-48 -19 -80 -61 -101 -132 -19 -65 -20 -70 -3 -120 42
-130 188 -200 287 -138 111 71 149 221 82 323 -40 61 -77 78 -165 77 -41 0
-86 -5 -100 -10z"/>
<path d="M1641 3153 c-6 -21 -10 -65 -9 -98 l1 -60 8 75 c4 41 10 85 14 98 4
12 5 22 2 22 -3 0 -11 -17 -16 -37z"/>
<path d="M1118 2695 c6 -11 27 -36 47 -55 23 -21 33 -27 27 -15 -6 11 -27 36
-47 55 -23 21 -33 27 -27 15z"/>
<path d="M3323 2486 c4 -10 -1 -12 -16 -9 l-22 5 22 -16 c13 -9 27 -31 33 -49
l10 -32 -4 35 c-2 19 0 45 5 58 7 18 5 22 -12 22 -14 0 -19 -5 -16 -14z"/>
<path d="M3757 2413 c-4 -3 -7 -24 -7 -45 l0 -38 84 0 84 0 12 35 c6 19 16 35
21 35 6 0 7 5 4 10 -7 11 -188 14 -198 3z"/>
<path d="M3070 2269 c-37 -5 -30 -6 39 -7 46 -1 82 0 80 2 -10 8 -78 11 -119
5z"/>
<path d="M3748 2272 c-15 -6 -15 -11 -3 -39 l14 -33 79 0 80 0 4 35 c3 23 -1
36 -10 40 -19 7 -144 5 -164 -3z"/>
<path d="M3005 2056 c-28 -21 -6 -28 70 -22 33 2 75 5 94 5 46 1 34 11 -20 17
-24 2 -62 6 -84 10 -28 4 -46 1 -60 -10z"/>
<path d="M3688 2043 c6 -2 18 -2 25 0 6 3 1 5 -13 5 -14 0 -19 -2 -12 -5z"/>
<path d="M2920 1831 c-11 -21 -12 -97 -1 -146 l6 -29 482 -4 c343 -3 487 -1
502 7 19 10 21 21 21 91 0 71 -2 79 -21 85 -11 4 -221 5 -467 4 -246 -2 -461
0 -479 4 -26 6 -34 4 -43 -12z"/>
<path d="M2924 1595 c-3 -11 -4 -52 -2 -90 l3 -70 481 -3 c346 -3 488 -1 503
7 19 10 21 20 21 91 0 71 -2 79 -21 85 -11 4 -236 5 -500 3 -472 -3 -480 -3
-485 -23z"/>
<path d="M2923 1374 c-3 -8 -6 -49 -7 -91 l-1 -76 500 2 c275 1 503 5 507 9 4
4 8 43 9 87 l2 80 -502 3 c-449 2 -502 1 -508 -14z"/>
<path d="M2928 1179 c-13 -7 -16 -17 -11 -42 3 -18 11 -35 17 -39 6 -4 228 -8
494 -8 379 0 482 -3 482 -12 0 -8 5 -6 10 4 14 23 19 77 9 83 -4 3 -216 7
-471 8 -255 2 -474 6 -488 9 -14 4 -33 3 -42 -3z"/>
<path d="M3913 1044 c-3 -8 -1 -20 6 -27 8 -8 11 -4 11 16 0 30 -7 35 -17 11z"/>
<path d="M2560 1014 c0 -14 3 -15 18 -3 9 7 19 15 21 16 2 2 -5 3 -17 3 -14 0
-22 -6 -22 -16z"/>
<path d="M2925 863 l0 -88 38 -3 c35 -3 37 -1 37 25 0 15 -7 46 -14 68 -8 22
-11 44 -6 49 4 4 209 7 454 5 345 -3 448 -7 458 -17 7 -7 13 -36 13 -64 0 -30
5 -53 12 -55 8 -3 12 21 15 77 2 45 1 84 -1 86 -2 2 -230 4 -505 4 l-502 0 1
-87z"/>
<path d="M2924 731 c-6 -6 -5 -47 2 -64 4 -12 15 -14 42 -10 20 3 42 10 49 15
7 6 192 9 445 9 424 0 433 0 449 -20 16 -20 17 -20 22 17 2 20 2 40 -2 44 -6
7 -1000 16 -1007 9z"/>
<path d="M2923 506 c-15 -8 -15 -10 1 -21 9 -7 21 -26 26 -42 7 -24 8 -25 9
-6 1 23 34 48 51 38 5 -3 11 -1 15 5 9 14 849 14 876 0 16 -9 19 -22 19 -75 0
-36 4 -65 10 -65 13 0 8 161 -5 166 -24 8 -988 8 -1002 0z"/>
<path d="M3006 431 c-4 -7 -5 -15 -2 -18 9 -9 19 4 14 18 -4 11 -6 11 -12 0z"/>
<path d="M2986 396 c4 -16 2 -26 -5 -26 -6 0 -11 7 -11 15 0 8 -4 15 -10 15
-5 0 -10 -22 -10 -49 0 -41 -4 -51 -20 -56 -21 -7 -27 -30 -10 -40 6 -4 8 -10
5 -15 -3 -5 11 -21 31 -36 29 -23 37 -25 45 -13 14 23 10 33 -7 18 -14 -12
-16 -11 -12 6 2 13 11 20 25 19 12 0 21 4 20 10 -1 8 132 11 443 11 l445 0 0
-40 0 -40 -79 -5 c-83 -5 -106 -19 -93 -54 6 -14 20 -16 99 -14 l93 3 0 90 0
90 -477 5 c-419 4 -527 11 -480 27 6 3 12 16 12 29 0 13 5 24 10 24 15 0 12
19 -5 37 -14 14 -15 13 -9 -11z"/>
<path d="M3006 184 c-7 -18 0 -34 15 -34 5 0 9 11 9 25 0 28 -15 34 -24 9z"/>
<path d="M2150 71 c-13 -25 -13 -58 1 -67 6 -3 10 1 9 12 -4 38 0 54 15 54 8
0 15 5 15 10 0 18 -29 11 -40 -9z"/>
</g>
</svg>
